<?xml version="1.0" standalone="no"?><!DOCTYPE svg PUBLIC "-//W3C//DTD SVG 1.1//EN"
        "http://www.w3.org/Graphics/SVG/1.1/DTD/svg11.dtd">
<svg t="1687343131638" class="icon" viewBox="0 0 1024 1024" version="1.1" xmlns="http://www.w3.org/2000/svg" p-id="659"
     xmlns:xlink="http://www.w3.org/1999/xlink" width="200" height="200">
    <path d="M439.168 311.168a42.624 42.624 0 0 1 60.330667 0l170.666666 170.666667c1.194667 1.194667 2.346667 2.517333 3.413334 3.84l0.682666 0.896a32.085333 32.085333 0 0 1 2.133334 3.2c0.298667 0.512 0.64 1.024 0.896 1.578666a49.536 49.536 0 0 1 2.261333 4.821334l0.938667 2.56 0.597333 1.962666 0.682667 2.773334 0.384 2.218666A38.229333 38.229333 0 0 1 682.666667 512l-0.170667-3.669333a20.864 20.864 0 0 1 0.128 2.304L682.666667 512l-0.042667 1.450667-0.128 2.218666a53.461333 53.461333 0 0 1-0.298667 2.730667l-0.384 2.218667c-0.170667 0.938667-0.426667 1.877333-0.64 2.773333a26.368 26.368 0 0 1-0.597333 1.962667c-0.256 0.853333-0.597333 1.664-0.896 2.517333a34.858667 34.858667 0 0 1-2.304 4.821333l-0.896 1.536a40.874667 40.874667 0 0 1-6.272 7.936l3.413333-3.84-0.298666 0.384-3.114667 3.498667-170.666667 170.666667a42.624 42.624 0 1 1-60.330666-60.330667L536.96 554.666667H128a42.666667 42.666667 0 0 1-42.368-37.674667L85.333333 512a42.666667 42.666667 0 0 1 42.666667-42.666667h408.96l-97.792-97.834666a42.666667 42.666667 0 0 1-3.541333-56.32l3.541333-4.010667zM810.666667 42.666667a128 128 0 0 1 128 128v682.666666a128 128 0 0 1-128 128h-213.333334a42.666667 42.666667 0 0 1 0-85.333333h213.333334a42.666667 42.666667 0 0 0 42.666666-42.666667V170.666667a42.666667 42.666667 0 0 0-42.666666-42.666667h-213.333334a42.666667 42.666667 0 0 1 0-85.333333h213.333334z"
          p-id="660"></path>
</svg>
